<svg width="49" height="41" viewBox="0 0 49 41" fill="none" xmlns="http://www.w3.org/2000/svg">
<path fill-rule="evenodd" clip-rule="evenodd" d="M23.9845 22.8032C24.3102 22.9245 24.6162 23.0626 24.8998 23.2257C25.7169 23.6964 26.3683 24.3249 26.8788 25.0884C27.8008 26.4679 28.2637 28.2803 28.4696 30.3794L28.4744 30.4296C28.1312 28.774 27.6447 27.3276 26.9166 26.1656C26.4353 25.399 25.8426 24.7726 25.11 24.2967C24.7386 24.0551 24.331 23.8543 23.8801 23.6985C23.7708 24.6324 23.6472 25.6709 23.5185 26.7461C22.9345 31.6218 22.2368 37.2454 22.2368 37.2454C22.2368 37.2454 22.6131 31.5905 22.96 26.6927L22.9827 26.3727C22.6712 26.5076 22.3771 26.6572 22.097 26.8193C21.4521 27.1916 20.885 27.6235 20.3847 28.1329C19.5482 28.9832 18.8919 30.006 18.351 31.1836L18.3381 31.2119C18.7278 29.9265 19.2559 28.7824 20.0037 27.8003C20.4722 27.1853 21.024 26.6384 21.6796 26.1677C22.0917 25.8718 22.5482 25.6166 23.0438 25.3854C23.0469 25.3844 23.0502 25.3823 23.0533 25.3823C23.1515 24.0112 23.2435 22.7541 23.3199 21.7699C23.3373 21.5451 23.354 21.3338 23.3695 21.1393C23.3247 21.1382 23.2801 21.1372 23.2358 21.1372H23.2126C22.8707 21.1361 22.5456 21.1623 22.2337 21.2093C21.4631 21.3254 20.7783 21.5691 20.1482 21.9205C19.0655 22.524 18.1476 23.3973 17.2662 24.35L17.2243 24.395C18.1695 23.0594 19.1854 21.8274 20.5589 21.0556C21.1998 20.6958 21.9154 20.4406 22.731 20.3225C22.9598 20.29 23.1963 20.2723 23.4409 20.2649C23.4477 20.1834 23.4539 20.1091 23.4596 20.0432C23.2539 19.97 23.0713 19.8466 22.9261 19.6897C22.5825 19.7964 22.197 19.765 21.8611 19.5705C21.5252 19.376 21.3053 19.057 21.2261 18.7045C20.8861 18.6271 20.577 18.418 20.3816 18.099C16.576 18.6146 14.3169 19.9658 13.2806 21.9121C12.2191 23.9055 12.4555 26.4752 13.5121 29.2645C14.9514 33.0641 17.9245 37.2496 21.4907 41C27.415 38.8748 32.4172 33.0568 34.1606 27.7219C35.0175 25.0999 35.0927 22.5972 34.0205 20.746C32.9953 18.9764 30.9246 17.8511 27.5837 17.7517C27.5541 17.8605 27.5104 17.9661 27.452 18.0676C27.2581 18.4044 26.9399 18.625 26.589 18.7045C26.5096 19.057 26.2898 19.376 25.954 19.5705C25.6181 19.765 25.2325 19.7964 24.889 19.6887C24.7283 19.8633 24.5219 19.9951 24.289 20.0652C24.2519 20.4176 24.1852 21.0399 24.0942 21.8442C24.0607 22.1412 24.024 22.4612 23.9845 22.8032ZM36.6336 2.76155L36.6718 2.73017L36.6444 2.75841C35.4857 3.96428 34.5763 5.17119 34.0323 6.41889C33.67 7.2493 33.4868 8.0933 33.5059 8.96868C33.5154 9.39957 33.5755 9.83883 33.6943 10.2865L33.6951 10.2896C34.6996 9.76353 36.0448 9.06804 37.4742 8.33281C41.3333 6.34569 45.7975 4.07513 45.7975 4.07513C45.7975 4.07513 41.4886 6.63016 37.744 8.82645C37.3002 9.08582 36.8647 9.34101 36.4452 9.58678C36.7212 9.76039 36.9993 9.91413 37.2793 10.0511C37.9485 10.3764 38.624 10.6044 39.3246 10.733C39.8687 10.8334 40.4216 10.8805 40.9858 10.8815H41.0144C41.6648 10.8795 42.33 10.8167 43.0133 10.7006L42.9834 10.71C41.8854 11.0499 40.8154 11.2466 39.7556 11.2486H39.7267C39.5725 11.2486 39.4186 11.2445 39.2648 11.2361C38.4941 11.1932 37.7335 11.0426 36.9771 10.7634C36.5152 10.5918 36.0613 10.3659 35.6055 10.0951L35.59 10.0857C34.9916 10.435 34.4437 10.7529 33.9748 11.0227C33.3271 11.3961 32.8311 11.6774 32.5659 11.827C32.552 12.1512 32.4237 12.444 32.2208 12.6689L32.2254 12.6741C32.3392 12.8206 32.4565 12.9597 32.5771 13.0904C33.1063 13.6635 33.6919 14.0954 34.3354 14.4207C35.45 14.9844 36.6971 15.2553 37.9887 15.4519L38.0193 15.4561C36.3864 15.4226 34.7996 15.272 33.3916 14.5661C32.9347 14.337 32.4991 14.0494 32.0893 13.6897L32.0866 13.6876C32.0668 13.7325 32.0442 13.7775 32.0189 13.8214C31.825 14.1582 31.5068 14.3789 31.1559 14.4584C31.0765 14.8108 30.8567 15.1298 30.5209 15.3243C30.1849 15.5189 29.7994 15.5502 29.4559 15.4436C29.2117 15.7082 28.8623 15.8744 28.4744 15.8744C28.2997 15.8744 28.1327 15.841 27.9797 15.7793C27.9933 15.8556 28.0003 15.9341 28.0003 16.0146C28.0003 16.2708 27.9287 16.5103 27.8044 16.7132C30.7108 16.8345 32.7294 17.7047 34.0169 19.0266C34.6495 19.6761 35.1103 20.4364 35.4122 21.2825C39.6831 20.5735 43.2784 18.6177 45.6927 15.3955C48.1025 12.1784 49.3303 7.71052 48.923 1.99807C45.0249 0.840315 41.182 0.0224609 37.7505 0.000497986C34.3198 -0.0225108 31.3064 0.749332 29.103 2.82849C27.6518 4.19855 26.5588 6.12919 25.9142 8.74801C26.0277 8.53152 26.2015 8.34431 26.428 8.21253C26.7639 8.018 27.1494 7.98663 27.4929 8.09435C27.737 7.8287 28.0865 7.66241 28.4744 7.66241C28.8623 7.66241 29.2117 7.8287 29.4559 8.09435C29.7994 7.98663 30.1849 8.018 30.5209 8.21253C30.8567 8.40706 31.0765 8.72709 31.1558 9.0785C31.5068 9.15799 31.825 9.37866 32.0189 9.71542C32.2128 10.0522 32.2442 10.4391 32.1372 10.7843C32.2103 10.8512 32.2759 10.9276 32.3324 11.0102C32.4824 10.9297 32.6733 10.8282 32.899 10.709C32.8202 10.3816 32.7656 10.0606 32.7417 9.74366C32.6706 8.80135 32.8223 7.90818 33.1651 7.05581C33.7841 5.51527 35.0182 4.11279 36.6336 2.76155ZM12.686 20.8757C13.951 18.9827 16.3465 17.5949 20.2262 17.0646C20.2317 17.0427 20.238 17.0207 20.2447 16.9987C19.9804 16.754 19.8147 16.4036 19.8147 16.0146C19.8147 15.6255 19.9804 15.2752 20.2447 15.0304C20.2122 14.9259 20.1925 14.8171 20.1863 14.7073C20.1709 14.6926 20.1559 14.6769 20.1413 14.6613C19.7978 14.7679 19.4123 14.7366 19.0765 14.542C18.8072 14.3862 18.6124 14.1498 18.5051 13.881C17.8884 13.7786 17.2801 13.653 16.6807 13.5004C16.4493 13.4407 16.2192 13.379 15.9902 13.3121C15.7673 13.5798 15.5345 13.8225 15.2861 14.0369C14.5706 14.6508 13.7628 15.0576 12.8747 15.2846C11.2578 15.6977 9.384 15.523 7.32382 15.0064C8.99336 15.2354 10.5153 15.2595 11.8497 14.9593C12.7316 14.7617 13.5181 14.4103 14.2105 13.8769C14.524 13.6353 14.8167 13.356 15.087 13.0329C14.0416 12.6856 13.0206 12.2704 12.0194 11.7998C8.90067 10.3335 5.98268 8.32548 3.11838 6.15952C6.07443 8.15606 9.07957 9.98107 12.2451 11.2842C12.5605 11.4149 12.8777 11.5383 13.1965 11.6576C13.1747 11.3041 13.1317 10.9631 13.0712 10.6316C12.9374 9.8974 12.7206 9.21654 12.4101 8.57335C11.8868 7.48984 11.1378 6.52034 10.2022 5.6094C11.2787 6.40739 12.1768 7.28904 12.8495 8.32443C13.2709 8.97286 13.5997 9.67776 13.8224 10.4548C13.96 10.9349 14.0467 11.4421 14.0986 11.9766C15.0037 12.2798 15.9229 12.5371 16.8592 12.7411C17.0708 12.7871 17.2833 12.831 17.4967 12.8718C17.378 12.5779 17.3705 12.26 17.46 11.9713C17.1956 11.7266 17.0301 11.3752 17.0301 10.9861C17.0301 10.5971 17.1956 10.2467 17.46 10.002C17.3531 9.65685 17.3844 9.27094 17.5783 8.93313C17.7724 8.59636 18.0904 8.37569 18.4415 8.2962C18.5207 7.9448 18.7406 7.62476 19.0765 7.43024C19.4124 7.23571 19.7978 7.20433 20.1413 7.31205C20.3855 7.04641 20.735 6.88012 21.1228 6.88012C21.5107 6.88012 21.8602 7.04641 22.1043 7.31205C22.1436 7.2995 22.1835 7.28904 22.2237 7.28067C21.2103 4.73716 19.8838 3.06067 18.2426 2.00645C16.4507 0.856011 14.295 0.447079 11.8071 0.420933C8.46979 0.385374 4.55074 1.03693 0.105622 1.61843C-0.325889 6.6563 0.569557 10.7268 2.70418 13.9082C4.84099 17.0939 8.21238 19.3812 12.686 20.8757ZM21.0266 14.5399C21.0366 14.4856 21.0561 14.4312 21.0854 14.3799C21.1874 14.2021 21.3813 14.1111 21.5722 14.131C21.6971 14.1436 21.8211 14.0996 21.9098 14.0107C21.9985 13.9218 22.0426 13.7974 22.0298 13.6719C22.0101 13.4805 22.1012 13.286 22.2781 13.1835C22.4551 13.081 22.6685 13.0988 22.824 13.2117C22.9257 13.286 23.0551 13.31 23.1763 13.2776C23.2976 13.2441 23.3977 13.1584 23.449 13.0444C23.5274 12.8687 23.7033 12.7453 23.9075 12.7453C24.0052 12.7453 24.0965 12.7735 24.1736 12.8226C24.1832 12.83 24.1932 12.8362 24.2034 12.8425C24.2737 12.8938 24.3301 12.9638 24.3661 13.0444C24.4174 13.1584 24.5175 13.2441 24.6387 13.2776C24.7599 13.31 24.8893 13.286 24.9911 13.2117C25.0683 13.1563 25.1598 13.1239 25.254 13.1176C25.2753 13.1186 25.2965 13.1186 25.3177 13.1176C25.3926 13.1218 25.4675 13.1437 25.5369 13.1835C25.7138 13.286 25.8049 13.4805 25.7853 13.6719C25.7725 13.7974 25.8165 13.9218 25.9052 14.0107C25.994 14.0996 26.118 14.1436 26.2428 14.131C26.4337 14.1111 26.6276 14.2021 26.7297 14.3799C26.8171 14.5316 26.8165 14.7104 26.744 14.8568C26.7342 14.8715 26.7254 14.8872 26.7174 14.9039C26.7123 14.9123 26.7069 14.9196 26.7013 14.9279C26.6278 15.0294 26.6039 15.1591 26.6364 15.2814C26.6689 15.4028 26.7542 15.5032 26.8688 15.5544C27.044 15.6339 27.1662 15.8096 27.1662 16.0146C27.1662 16.2196 27.044 16.3963 26.8688 16.4748C26.7542 16.526 26.6689 16.6264 26.6364 16.7477C26.6052 16.8649 26.6259 16.9883 26.6923 17.0887C26.6814 17.1305 26.6754 17.1744 26.6752 17.2194C26.6745 17.3376 26.7129 17.4464 26.7782 17.5342C26.7672 17.574 26.751 17.6126 26.7297 17.6493C26.6276 17.827 26.4337 17.918 26.2428 17.8982C26.118 17.8856 25.994 17.9295 25.9052 18.0184C25.8165 18.1073 25.7725 18.2318 25.7853 18.3573C25.8049 18.5487 25.7138 18.7432 25.5369 18.8457C25.36 18.9482 25.1466 18.9304 24.9911 18.8175C24.8893 18.7432 24.7599 18.7192 24.6387 18.7526C24.5175 18.7851 24.4174 18.8708 24.3661 18.9848C24.2879 19.1605 24.1128 19.2829 23.9093 19.2839H23.9057C23.7023 19.2829 23.5272 19.1605 23.449 18.9848C23.3977 18.8708 23.2976 18.7851 23.1763 18.7526C23.0551 18.7192 22.9257 18.7432 22.824 18.8175C22.6685 18.9304 22.4551 18.9482 22.2781 18.8457C22.1012 18.7432 22.0101 18.5487 22.0298 18.3573C22.0426 18.2318 21.9985 18.1073 21.9098 18.0184C21.8211 17.9295 21.6971 17.8856 21.5722 17.8982C21.3977 17.9159 21.2208 17.8417 21.1137 17.6932C21.1341 17.6252 21.1411 17.553 21.1322 17.4788C21.1215 17.3909 21.0897 17.3104 21.0425 17.2435C21.0586 17.1933 21.0826 17.1452 21.1137 17.1012C21.1873 16.9998 21.2111 16.8701 21.1787 16.7477C21.1461 16.6264 21.0608 16.526 20.9463 16.4748C20.771 16.3963 20.6487 16.2196 20.6487 16.0146C20.6487 15.8096 20.771 15.6339 20.9463 15.5544C21.0608 15.5032 21.1461 15.4028 21.1787 15.2814C21.2111 15.1591 21.1873 15.0294 21.1137 14.9279C21.045 14.8328 21.0116 14.7156 21.0192 14.5985C21.023 14.5786 21.0254 14.5598 21.0266 14.5399ZM23.9075 14.2555C22.9396 14.2555 22.1539 15.044 22.1539 16.0146C22.1539 16.9862 22.9396 17.7737 23.9075 17.7737C24.8755 17.7737 25.6612 16.9862 25.6612 16.0146C25.6612 15.044 24.8755 14.2555 23.9075 14.2555ZM23.9075 15.0922C24.4151 15.0922 24.8272 15.5053 24.8272 16.0146C24.8272 16.5239 24.4151 16.937 23.9075 16.937C23.3999 16.937 22.9879 16.5239 22.9879 16.0146C22.9879 15.5053 23.3999 15.0922 23.9075 15.0922ZM25.6112 10.2248C25.6023 10.2781 25.5936 10.3314 25.585 10.3848C25.585 10.4904 25.6183 10.595 25.6806 10.6818C25.7541 10.7832 25.778 10.9129 25.7456 11.0353C25.713 11.1566 25.6276 11.257 25.5132 11.3083C25.492 11.3177 25.4716 11.3292 25.4521 11.3417L25.4506 11.3543C25.4317 11.5143 25.3422 11.6492 25.2171 11.7308C25.2162 11.7433 25.2156 11.7559 25.2156 11.7684C25.2156 11.9734 25.3379 12.1502 25.5132 12.2286C25.567 12.2527 25.6144 12.2882 25.6529 12.3311C25.7559 12.3604 25.8569 12.4033 25.954 12.4587C26.2898 12.6532 26.5098 12.9722 26.5889 13.3247C26.9399 13.4041 27.2581 13.6248 27.452 13.9616C27.5488 14.13 27.6051 14.3109 27.6239 14.4918C27.6636 14.4908 27.7039 14.495 27.7432 14.5065C27.8644 14.5389 27.9645 14.6247 28.0158 14.7397C28.0943 14.9154 28.2702 15.0378 28.4744 15.0378C28.6787 15.0378 28.8544 14.9154 28.9329 14.7397C28.9842 14.6247 29.0844 14.5389 29.2056 14.5065C29.3268 14.4741 29.4562 14.4971 29.558 14.5713C29.7135 14.6843 29.9269 14.702 30.1038 14.5995C30.2807 14.4971 30.3718 14.3025 30.3522 14.1111C30.3393 13.9856 30.3833 13.8612 30.4721 13.7723C30.5608 13.6834 30.6849 13.6395 30.8096 13.652C31.0006 13.6719 31.1944 13.5809 31.2966 13.4031C31.3987 13.2253 31.3806 13.0119 31.2682 12.8551C31.1947 12.7536 31.1708 12.6239 31.2033 12.5016C31.2357 12.3803 31.3211 12.2799 31.4357 12.2286C31.6108 12.1502 31.7331 11.9734 31.7331 11.7684C31.7331 11.5634 31.6108 11.3877 31.4357 11.3083C31.3211 11.257 31.2357 11.1566 31.2033 11.0353C31.1708 10.9129 31.1947 10.7832 31.2682 10.6818C31.3806 10.526 31.3987 10.3116 31.2966 10.1338C31.1944 9.95701 31.0006 9.86498 30.8096 9.88485C30.6849 9.8974 30.5608 9.85347 30.4721 9.76457C30.3833 9.67568 30.3393 9.55122 30.3522 9.42572C30.3718 9.23433 30.2807 9.03981 30.1038 8.93731C29.9269 8.83482 29.7135 8.85259 29.558 8.96554C29.4562 9.0398 29.3268 9.06385 29.2056 9.03143C29.0844 8.99796 28.9842 8.91325 28.9329 8.79821C28.8544 8.6225 28.6787 8.49909 28.4744 8.49909C28.2702 8.49909 28.0943 8.6225 28.0158 8.79821C27.9645 8.91325 27.8644 8.99796 27.7432 9.03143C27.6219 9.06385 27.4926 9.0398 27.3909 8.96554C27.2354 8.85259 27.022 8.83482 26.845 8.93731C26.6681 9.03981 26.577 9.23433 26.5967 9.42572C26.6095 9.55122 26.5654 9.67568 26.4767 9.76457C26.388 9.85347 26.264 9.8974 26.1391 9.88485C25.9482 9.86498 25.7543 9.95701 25.6523 10.1338C25.6353 10.163 25.6216 10.1944 25.6112 10.2248ZM19.2465 13.4449C19.2472 13.4491 19.248 13.4543 19.2485 13.4585C19.2711 13.6039 19.3567 13.7378 19.4935 13.8173C19.6703 13.9197 19.8838 13.902 20.0394 13.789C20.141 13.7158 20.2704 13.6917 20.3917 13.7242C20.4293 13.7336 20.4649 13.7493 20.4977 13.7691C20.6892 13.5401 20.9473 13.3885 21.2261 13.3247C21.2793 13.0883 21.3957 12.8676 21.5681 12.6877C21.4259 12.7254 21.2767 12.7453 21.1228 12.7453C20.155 12.7453 19.3692 11.9577 19.3692 10.9861C19.3692 10.0156 20.155 9.227 21.1228 9.227C22.0907 9.227 22.8765 10.0156 22.8765 10.9861C22.8765 11.5091 22.6488 11.9786 22.2873 12.3018C22.5022 12.2621 22.7215 12.2767 22.9261 12.3405C23.1571 12.0895 23.4826 11.9274 23.8456 11.9107C23.8332 11.8479 23.8349 11.7831 23.8518 11.7203C23.8842 11.598 23.9696 11.4976 24.0841 11.4463C24.2593 11.3679 24.3816 11.1911 24.3816 10.9861C24.3816 10.7811 24.2593 10.6054 24.0841 10.526C23.9696 10.4747 23.8842 10.3743 23.8518 10.253C23.8192 10.1317 23.8431 10.002 23.9166 9.89949C24.0291 9.74366 24.0471 9.52926 23.945 9.35147C23.8429 9.17472 23.649 9.08268 23.4581 9.10255C23.3332 9.1151 23.2092 9.07117 23.1205 8.98228C23.0318 8.89338 22.9877 8.76892 23.0005 8.64342C23.012 8.53256 22.9859 8.41961 22.9273 8.32548C22.7714 8.30979 22.6275 8.22403 22.5405 8.08912C22.4219 8.0797 22.303 8.11317 22.2063 8.18429C22.1047 8.2575 21.9753 8.28156 21.854 8.24913C21.7328 8.21567 21.6327 8.13095 21.5814 8.01591C21.5029 7.84021 21.3271 7.7168 21.1228 7.7168C20.9186 7.7168 20.7428 7.84021 20.6643 8.01591C20.613 8.13095 20.5129 8.21567 20.3917 8.24913C20.2704 8.28156 20.141 8.2575 20.0394 8.18429C19.8838 8.07134 19.6703 8.05251 19.4935 8.155C19.3166 8.2575 19.2255 8.45203 19.2451 8.64342C19.258 8.76892 19.2139 8.89338 19.1252 8.98228C19.0364 9.07117 18.9124 9.1151 18.7876 9.10255C18.5966 9.08268 18.4028 9.17472 18.3007 9.35147C18.1985 9.52926 18.2166 9.74366 18.3291 9.89949C18.4026 10.002 18.4264 10.1317 18.3939 10.253C18.3615 10.3743 18.2761 10.4747 18.1616 10.526C17.9864 10.6054 17.8641 10.7811 17.8641 10.9861C17.8641 11.1911 17.9864 11.3679 18.1616 11.4463C18.2761 11.4976 18.3615 11.598 18.3939 11.7203C18.4264 11.8416 18.4026 11.9713 18.3291 12.0738C18.2166 12.2297 18.1985 12.443 18.3007 12.6208C18.4028 12.7986 18.5966 12.8896 18.7876 12.8697C18.9124 12.8572 19.0364 12.9011 19.1252 12.99C19.2139 13.0789 19.258 13.2033 19.2451 13.3288C19.2411 13.3675 19.2417 13.4062 19.2465 13.4449ZM28.4744 10.0093C27.5065 10.0093 26.7208 10.7979 26.7208 11.7684C26.7208 12.739 27.5065 13.5275 28.4744 13.5275C29.4422 13.5275 30.2281 12.739 30.2281 11.7684C30.2281 10.7979 29.4422 10.0093 28.4744 10.0093ZM28.4744 10.846C28.982 10.846 29.3941 11.2591 29.3941 11.7684C29.3941 12.2778 28.982 12.6909 28.4744 12.6909C27.9668 12.6909 27.5548 12.2778 27.5548 11.7684C27.5548 11.2591 27.9668 10.846 28.4744 10.846ZM21.1228 10.0637C21.6304 10.0637 22.0424 10.4768 22.0424 10.9861C22.0424 11.4955 21.6304 11.9086 21.1228 11.9086C20.6153 11.9086 20.2033 11.4955 20.2033 10.9861C20.2033 10.4768 20.6153 10.0637 21.1228 10.0637Z" fill="black"/>
</svg>
