<svg width="40" height="40" viewBox="0 0 40 40" fill="none" xmlns="http://www.w3.org/2000/svg">
<path fill-rule="evenodd" clip-rule="evenodd" d="M40 10.3703V5.18491C40 4.59602 39.7667 4.02937 39.3482 3.61455C38.9333 3.19604 38.3667 2.96271 37.7778 2.96271H28.2741C28.5797 3.82566 29.4037 4.44418 30.3704 4.44418C30.7797 4.44418 31.1111 4.77566 31.1111 5.18491C31.1111 5.59417 30.7797 5.92565 30.3704 5.92565C28.5797 5.92565 27.0852 4.65158 26.7408 2.96271H17.9037C18.2092 3.82566 19.0333 4.44418 20 4.44418C20.4092 4.44418 20.7407 4.77566 20.7407 5.18491C20.7407 5.59417 20.4092 5.92565 20 5.92565C18.2093 5.92565 16.7148 4.65158 16.3704 2.96271H7.53326C7.83881 3.82566 8.66287 4.44418 9.62955 4.44418C10.0388 4.44418 10.3703 4.77566 10.3703 5.18491C10.3703 5.59417 10.0388 5.92565 9.62955 5.92565C7.83884 5.92565 6.34439 4.65158 5.99997 2.96271H2.2222C1.63331 2.96271 1.06666 3.19604 0.651846 3.61455C0.233332 4.02937 0 4.59602 0 5.18491V10.3703H40Z" fill="black"/>
<path fill-rule="evenodd" clip-rule="evenodd" d="M11.7258 1.48147C11.4202 0.618519 10.5962 0 9.62949 0C8.66282 0 7.83879 0.618519 7.5332 1.48147H11.7258Z" fill="black"/>
<path fill-rule="evenodd" clip-rule="evenodd" d="M22.0964 1.48147C21.7908 0.618519 20.9668 0 20.0001 0C19.0334 0 18.2094 0.618519 17.9038 1.48147H22.0964Z" fill="black"/>
<path fill-rule="evenodd" clip-rule="evenodd" d="M32.4665 1.48147C32.161 0.618519 31.3369 0 30.3702 0C29.4035 0 28.5795 0.618519 28.2739 1.48147H32.4665Z" fill="black"/>
<path fill-rule="evenodd" clip-rule="evenodd" d="M40.0002 11.8513V37.7772C40.0002 39.0049 39.0057 39.9994 37.778 39.9994H2.22269C0.994945 39.9994 0.000488281 39.0049 0.000488281 37.7772V11.8513H40.0002ZM38.5187 37.7772V14.0737C38.5187 13.6644 38.1872 13.333 37.778 13.333H2.22269C1.81344 13.333 1.48196 13.6644 1.48196 14.0737V37.7772C1.48196 38.1865 1.81344 38.5179 2.22269 38.5179H37.778C38.1872 38.5179 38.5187 38.1865 38.5187 37.7772ZM7.40783 32.5918V37.0362H2.96343V32.5918H7.40783ZM13.3337 32.5918H8.8893V37.0362H13.3337V32.5918ZM14.8152 32.5918V37.0362H19.2596V32.5918H14.8152ZM25.1855 32.5918H20.7411V37.0362H25.1855V32.5918ZM28.4521 32.5918H26.6669V37.0362H31.1113V32.5918H28.4521ZM37.037 32.5918H32.5926V37.0362H37.037V32.5918ZM7.40764 26.6659V31.1104H2.96324V26.6659H7.40764ZM8.88911 26.6659V31.1104H13.3335V26.6659H8.88911ZM14.815 26.6659V31.1104H19.2594V26.6659H14.815ZM20.7409 26.6659V31.1104H25.1853V26.6659H20.7409ZM28.4521 26.6659H26.6669V31.1104H31.1113V26.6659H28.4521ZM37.037 26.6659H32.5926V31.1104H37.037V26.6659ZM2.96324 20.7401V25.1845H7.40764V20.7401H2.96324ZM8.88911 20.7401V25.1845H13.3335V20.7401H8.88911ZM14.815 20.7401V25.1845H19.2594V20.7401H14.815ZM20.7409 20.7401V25.1845H25.1853V20.7401H20.7409ZM28.4521 20.7401H26.6669V25.1845H31.1113V20.7401H28.4521ZM37.037 20.7401H32.5926V25.1845H37.037V20.7401ZM7.40764 14.8142V19.2586H2.96324V14.8142H7.40764ZM8.88911 19.2586H13.3335V14.8142H8.88911V19.2586ZM14.815 14.8142V19.2586H19.2594V14.8142H14.815ZM20.7409 19.2586H25.1853V14.8142H20.7409V19.2586ZM26.6667 14.8142V19.2586H31.1111V14.8142H26.6667ZM32.5926 14.8142H37.037V19.2586H32.5926V14.8142Z" fill="black"/>
</svg>
