<svg width="100" height="100" viewBox="0 0 100 100" fill="none" xmlns="http://www.w3.org/2000/svg">
<path d="M10 35H0V5C0 3.67392 0.526784 2.40215 1.46447 1.46447C2.40215 0.526784 3.67392 0 5 0H35V10H10V35ZM95 0H65V10H90V35H100V5C100 3.67392 99.4732 2.40215 98.5355 1.46447C97.5979 0.526784 96.3261 0 95 0ZM90 90H65V100H95C96.3261 100 97.5979 99.4732 98.5355 98.5355C99.4732 97.5979 100 96.3261 100 95V65H90V90ZM10 65H0V95C0 96.3261 0.526784 97.5979 1.46447 98.5355C2.40215 99.4732 3.67392 100 5 100H35V90H10V65ZM75 50C75 45.0555 73.5338 40.222 70.7867 36.1107C68.0397 31.9995 64.1352 28.7952 59.5671 26.903C54.9989 25.0108 49.9723 24.5157 45.1227 25.4804C40.2732 26.445 35.8186 28.826 32.3223 32.3223C28.826 35.8186 26.445 40.2732 25.4804 45.1227C24.5157 49.9723 25.0108 54.9989 26.903 59.5671C28.7952 64.1352 31.9995 68.0397 36.1107 70.7867C40.222 73.5338 45.0555 75 50 75C56.628 74.9922 62.9823 72.3558 67.669 67.669C72.3558 62.9823 74.9922 56.628 75 50Z" fill="#F7D32A" fill-opacity="0.6"/>
</svg>
