<svg width="39" height="40" viewBox="0 0 39 40" fill="none" xmlns="http://www.w3.org/2000/svg">
<path d="M1.8871 40H37.1129C37.6134 40 38.0934 39.8025 38.4473 39.4508C38.8012 39.0992 39 38.6223 39 38.125V3.125C39 2.62772 38.8012 2.15081 38.4473 1.79917C38.0934 1.44754 37.6134 1.25 37.1129 1.25H32.2662V0.625C32.2662 0.45924 32.1999 0.300269 32.082 0.183058C31.964 0.065848 31.804 0 31.6372 0C31.4703 0 31.3104 0.065848 31.1924 0.183058C31.0744 0.300269 31.0081 0.45924 31.0081 0.625V1.25H7.10492V0.625C7.10492 0.45924 7.03865 0.300269 6.92068 0.183058C6.80271 0.065848 6.64272 0 6.47589 0C6.30906 0 6.14906 0.065848 6.03109 0.183058C5.91313 0.300269 5.84685 0.45924 5.84685 0.625V1.25H1.8871C1.38661 1.25 0.906617 1.44754 0.552718 1.79917C0.198819 2.15081 0 2.62772 0 3.125V38.125C0 38.6223 0.198819 39.0992 0.552718 39.4508C0.906617 39.8025 1.38661 40 1.8871 40ZM1.25806 3.125C1.25806 2.95924 1.32434 2.80027 1.4423 2.68306C1.56027 2.56585 1.72027 2.5 1.8871 2.5H5.84685V3.02188C5.84685 3.18764 5.91313 3.34661 6.03109 3.46382C6.14906 3.58103 6.30906 3.64688 6.47589 3.64688C6.64272 3.64688 6.80271 3.58103 6.92068 3.46382C7.03865 3.34661 7.10492 3.18764 7.10492 3.02188V2.5H31.0081V3.02188C31.0081 3.18764 31.0744 3.34661 31.1924 3.46382C31.3104 3.58103 31.4703 3.64688 31.6372 3.64688C31.804 3.64688 31.964 3.58103 32.082 3.46382C32.1999 3.34661 32.2662 3.18764 32.2662 3.02188V2.5H37.1129C37.2797 2.5 37.4397 2.56585 37.5577 2.68306C37.6757 2.80027 37.7419 2.95924 37.7419 3.125V38.125C37.7419 38.2908 37.6757 38.4497 37.5577 38.5669C37.4397 38.6842 37.2797 38.75 37.1129 38.75H1.8871C1.72027 38.75 1.56027 38.6842 1.4423 38.5669C1.32434 38.4497 1.25806 38.2908 1.25806 38.125V3.125Z" fill="black"/>
<path d="M5.03235 26.5625C4.86552 26.5625 4.70553 26.6283 4.58756 26.7456C4.46959 26.8628 4.40332 27.0217 4.40332 27.1875C4.40332 27.3533 4.46959 27.5122 4.58756 27.6294C4.70553 27.7467 4.86552 27.8125 5.03235 27.8125H12.5807V35.3125C12.5807 35.4783 12.647 35.6372 12.765 35.7544C12.8829 35.8717 13.0429 35.9375 13.2098 35.9375C13.3766 35.9375 13.5366 35.8717 13.6546 35.7544C13.7725 35.6372 13.8388 35.4783 13.8388 35.3125V27.8125H25.1614V35.3125C25.1614 35.4783 25.2277 35.6372 25.3456 35.7544C25.4636 35.8717 25.6236 35.9375 25.7904 35.9375C25.9572 35.9375 26.1172 35.8717 26.2352 35.7544C26.3532 35.6372 26.4195 35.4783 26.4195 35.3125V27.8125H33.9678C34.1347 27.8125 34.2947 27.7467 34.4126 27.6294C34.5306 27.5122 34.5969 27.3533 34.5969 27.1875C34.5969 27.0217 34.5306 26.8628 34.4126 26.7456C34.2947 26.6283 34.1347 26.5625 33.9678 26.5625H26.4195V15.3125H33.9678C34.1347 15.3125 34.2947 15.2467 34.4126 15.1294C34.5306 15.0122 34.5969 14.8533 34.5969 14.6875C34.5969 14.5217 34.5306 14.3628 34.4126 14.2456C34.2947 14.1283 34.1347 14.0625 33.9678 14.0625H26.4195V5.9375C26.4195 5.77174 26.3532 5.61277 26.2352 5.49556C26.1172 5.37835 25.9572 5.3125 25.7904 5.3125C25.6236 5.3125 25.4636 5.37835 25.3456 5.49556C25.2277 5.61277 25.1614 5.77174 25.1614 5.9375V14.0625H13.8388V5.9375C13.8388 5.77174 13.7725 5.61277 13.6546 5.49556C13.5366 5.37835 13.3766 5.3125 13.2098 5.3125C13.0429 5.3125 12.8829 5.37835 12.765 5.49556C12.647 5.61277 12.5807 5.77174 12.5807 5.9375V14.0625H5.03235C4.86552 14.0625 4.70553 14.1283 4.58756 14.2456C4.46959 14.3628 4.40332 14.5217 4.40332 14.6875C4.40332 14.8533 4.46959 15.0122 4.58756 15.1294C4.70553 15.2467 4.86552 15.3125 5.03235 15.3125H12.5807V26.5625H5.03235ZM25.1614 26.5625H21.5979L25.1614 23.0219V26.5625ZM25.1614 21.25L19.8146 26.5625H18.0407L25.1614 19.4875V21.25ZM25.1614 17.7219L25.1142 17.7594L16.3078 26.5094C16.2933 26.5253 16.2796 26.542 16.2669 26.5594H14.4678C14.4888 26.544 14.5087 26.5273 14.5276 26.5094L25.1614 15.9375V17.7219ZM13.8388 15.3125H16.9085L13.8388 18.3625V15.3125ZM13.8388 20.1312L18.6886 15.3125H20.4688L13.8388 21.875V20.1312ZM13.8388 23.6375L22.249 15.3125H24.026L13.8388 25.4344V23.6375Z" fill="black"/>
</svg>
